<?xml version="1.0" encoding="UTF-8"?><svg id="uuid-02e12c6d-cee4-4a6d-bad0-f51fa43964c4" xmlns="http://www.w3.org/2000/svg" viewBox="0 0 1520 655"><g id="uuid-00b9d3f9-8ced-43e1-a734-f04994ef536f"><path d="m1510.04,644.94c2.98-3.08,4.47-6.86,4.47-11.38s-1.49-8.31-4.47-11.34c-2.98-3.07-6.71-4.61-11.22-4.61s-8.24,1.53-11.22,4.61c-2.93,3.03-4.42,6.81-4.42,11.34s1.49,8.3,4.42,11.38c2.98,3.03,6.71,4.57,11.22,4.57s8.24-1.54,11.22-4.57m-18.85-3.21c-2.06-2.2-3.07-4.92-3.07-8.17s1.01-5.98,3.07-8.13c2.06-2.2,4.6-3.3,7.63-3.3s5.57,1.1,7.63,3.3c2.06,2.15,3.11,4.88,3.11,8.13s-1.05,5.98-3.11,8.17c-2.06,2.15-4.6,3.25-7.63,3.25s-5.57-1.1-7.63-3.25m-31.2-26.63c.22-1.36.83-2.02,1.8-2.02.57,0,1.49.35,2.76,1.1,1.27.7,2.32,1.05,3.16,1.05,2.63,0,4.42-2.46,4.47-5.58h-2.84c-.22,1.36-.83,2.02-1.75,2.02-.57,0-1.49-.35-2.76-1.05-1.27-.74-2.37-1.1-3.2-1.1-2.63,0-4.42,2.46-4.47,5.58h2.84Zm4.6,9.01l5.61,12.92h-11.22l5.61-12.92Zm-10.56,24.82l3.29-7.65h14.54l3.33,7.65h5.17l-13.4-30.93h-4.65l-13.4,30.93h5.13Zm-19.15,6.06l2.67-5.63c2.67-.26,4.99-1.05,6.97-2.33v-4.87c-2.37,1.89-5.3,2.81-8.76,2.81s-6-1.05-8.2-3.21c-2.15-2.15-3.24-4.92-3.24-8.22s1.05-6.02,3.2-8.18c2.15-2.15,4.86-3.25,8.06-3.25,3.02,0,5.78.79,8.28,2.42v-4.88c-2.41-1.36-5.17-2.06-8.33-2.06-4.65,0-8.5,1.49-11.57,4.52-3.06,2.99-4.6,6.81-4.6,11.43,0,4.26,1.31,7.87,3.94,10.81,2.67,2.9,6.05,4.56,10.17,5l-4.08,5.63h5.48Zm-34.09-30.89l5.61,12.92h-11.22l5.61-12.92Zm-10.56,24.82l3.28-7.65h14.55l3.33,7.65h5.17l-13.41-30.93h-4.65l-13.41,30.93h5.13Zm-11.49-30.75h-4.81v30.75h4.81v-30.75Zm-21.25,31.33c3.46,0,6.44-.83,8.98-2.46v-4.88c-2.36,1.89-5.3,2.81-8.76,2.81s-6-1.05-8.19-3.21c-2.15-2.15-3.24-4.92-3.24-8.22s1.05-6.02,3.2-8.18c2.15-2.15,4.86-3.25,8.06-3.25,3.02,0,5.78.79,8.28,2.42v-4.88c-2.41-1.36-5.17-2.06-8.33-2.06-4.65,0-8.5,1.49-11.57,4.52-3.07,2.99-4.6,6.81-4.6,11.43s1.53,8.44,4.6,11.47c3.11,2.99,6.97,4.48,11.57,4.48m-27.38-4.57c2.98-3.08,4.47-6.86,4.47-11.38s-1.49-8.31-4.47-11.34c-2.98-3.07-6.71-4.61-11.22-4.61s-8.24,1.53-11.22,4.61c-2.93,3.03-4.42,6.81-4.42,11.34s1.49,8.3,4.42,11.38c2.98,3.03,6.71,4.57,11.22,4.57s8.24-1.54,11.22-4.57m-18.85-3.21c-2.06-2.2-3.07-4.92-3.07-8.17s1.01-5.98,3.07-8.13c2.06-2.2,4.6-3.3,7.63-3.3s5.57,1.1,7.63,3.3c2.06,2.15,3.11,4.88,3.11,8.13s-1.05,5.98-3.11,8.17c-2.06,2.15-4.6,3.25-7.63,3.25s-5.57-1.1-7.63-3.25m-25.72,7.77c3.37,0,6.18-.83,8.41-2.46,2.23-1.62,3.37-3.86,3.37-6.72-.17-3.47-1.62-5.67-4.33-7.12-1.93-1.06-3.29-1.58-5.61-2.28l-3.51-1.01c-.74-.31-2.15-.75-2.72-1.1-1.05-.75-1.8-1.45-1.8-2.77,0-2.28,2.06-3.91,6.27-3.91,3.38,0,6.62.97,9.73,2.86v-4.83c-2.85-1.71-6.13-2.54-9.81-2.54-6.88,0-11.13,3.29-11.13,8.39,0,2.81.92,4.79,3.15,6.2,1.14.66,2.15,1.19,3.07,1.54.92.35,2.28.79,3.99,1.27l.62.18c1.97.57,2.8.79,4.21,1.45.7.31,1.23.62,1.58.93.75.66,1.36,1.63,1.36,2.85,0,2.86-3.07,4.57-7.1,4.57-2.11,0-4.21-.39-6.31-1.19-2.06-.79-3.72-1.71-4.94-2.81v5.23c3.02,2.2,6.83,3.29,11.52,3.29m-28.92,0c3.38,0,6.18-.83,8.42-2.46,2.23-1.62,3.37-3.86,3.37-6.72-.17-3.47-1.62-5.67-4.33-7.12-1.93-1.06-3.29-1.58-5.61-2.28l-3.51-1.01c-.75-.31-2.15-.75-2.72-1.1-1.05-.75-1.8-1.45-1.8-2.77,0-2.28,2.06-3.91,6.27-3.91,3.38,0,6.62.97,9.73,2.86v-4.83c-2.84-1.71-6.13-2.54-9.81-2.54-6.88,0-11.13,3.29-11.13,8.39,0,2.81.92,4.79,3.15,6.2,1.14.66,2.15,1.19,3.07,1.54.92.35,2.28.79,3.99,1.27l.61.18c1.97.57,2.81.79,4.21,1.45.7.31,1.23.62,1.58.93.75.66,1.36,1.63,1.36,2.85,0,2.86-3.07,4.57-7.1,4.57-2.1,0-4.21-.39-6.31-1.19-2.06-.79-3.72-1.71-4.95-2.81v5.23c3.02,2.2,6.83,3.29,11.52,3.29m-31.55-25.4l5.61,12.92h-11.21l5.61-12.92Zm-10.56,24.82l3.28-7.65h14.55l3.33,7.65h5.17l-13.41-30.93h-4.65l-13.41,30.93h5.13Zm-40-25.35h6.41c2.26,0,3.69,1.25,3.69,3.15s-1.43,3.05-3.69,3.05h-6.41v-6.2Zm0,25.35v-12.35h3.32l9.13,12.35h9.55l-9.78-13.27c3.92-1.53,6.27-4.9,6.27-9.11,0-2.91-1.06-5.32-3.18-7.17-2.08-1.9-4.89-2.82-8.44-2.82h-15.18v32.38h8.3Zm-15.31,0v-7.31h-16.61v-6.34h12.92v-7.03h-12.92v-4.39h16.24v-7.31h-24.54v32.38h24.91Zm-53.88,0v-13.46h12.18v13.46h8.3v-32.38h-8.3v11.52h-12.18v-11.52h-8.3v32.38h8.3Zm-14.9,0v-7.31h-15.5v-25.07h-8.3v32.38h23.8Zm-60.2-13.55c0,4.49,1.34,8,4.01,10.5,2.67,2.45,6.04,3.7,10.15,3.7s7.47-1.25,10.15-3.7c2.68-2.5,4.01-6.01,4.01-10.5v-18.82h-8.3v19.24c0,4.12-2.4,6.1-5.86,6.1s-5.86-1.99-5.86-6.1v-19.24h-8.3v18.82Zm-32.61,13.55v-19.75l5.95,8.7h4.57l5.77-8.7v19.75h8.26v-32.38h-8.21l-8.21,12.44-8.16-12.44h-8.26v32.38h8.3Zm-45.4-22.16l3.37,8.65h-6.74l3.37-8.65Zm-8.72,22.16l2.72-6.85h11.99l2.72,6.85h8.9l-13.56-32.56h-7.98l-13.56,32.56h8.76Zm-33.72-25.07h3.97c6.27,0,9.87,3.19,9.87,8.88s-3.6,8.88-9.87,8.88h-3.97v-17.76Zm4.57,25.07c5.26,0,9.55-1.48,12.87-4.49,3.32-3.01,4.98-6.94,4.98-11.7s-1.66-8.65-4.98-11.65c-3.32-3.01-7.61-4.53-12.87-4.53h-12.87v32.38h12.87Z" style="fill:#1d1d1b; stroke-width:0px;"/><path d="m1512.48,593.43v-7.31h-15.5v-25.07h-8.3v32.38h23.8Zm-47.28-22.16l3.37,8.65h-6.74l3.37-8.65Zm-8.72,22.16l2.72-6.85h11.99l2.72,6.85h8.9l-13.56-32.56h-7.98l-13.56,32.56h8.76Zm-35.8,0v-17.9l14.3,17.9h6.87v-32.38h-8.12v17.81l-14.11-17.81h-7.1v32.38h8.17Zm-20.48-4.26c3.23-3.29,4.84-7.26,4.84-11.93s-1.61-8.65-4.84-11.93c-3.23-3.29-7.29-4.9-12.18-4.9s-8.95,1.62-12.18,4.9c-3.23,3.28-4.85,7.26-4.85,11.93s1.62,8.65,4.85,11.93c3.23,3.29,7.29,4.9,12.18,4.9s8.95-1.62,12.18-4.9m-18.27-5.37c-1.62-1.71-2.4-3.93-2.4-6.57s.78-4.86,2.4-6.57c1.61-1.71,3.64-2.59,6.09-2.59s4.43.88,6.04,2.59c1.62,1.71,2.44,3.93,2.44,6.57s-.83,4.86-2.44,6.57c-1.61,1.71-3.6,2.59-6.04,2.59s-4.47-.88-6.09-2.59m-18.59-22.75h-8.3v32.38h8.3v-32.38Zm-24.82,33.02c3.27,0,6.23-.69,8.86-2.03v-8.24c-2.26,1.71-5.08,2.59-8.49,2.59-2.81,0-5.17-.83-7.06-2.54-1.84-1.71-2.77-3.93-2.77-6.61s.92-4.86,2.72-6.57c1.8-1.71,4.06-2.59,6.78-2.59,3,0,5.72.79,8.26,2.36v-8.19c-2.54-1.25-5.31-1.85-8.35-1.85-5.17,0-9.46,1.57-12.87,4.72-3.37,3.15-5.08,7.17-5.08,12.12s1.71,8.97,5.12,12.12c3.41,3.15,7.71,4.72,12.87,4.72m-38.15-22.8l3.37,8.65h-6.73l3.37-8.65Zm-8.72,22.16l2.72-6.85h11.99l2.72,6.85h8.9l-13.56-32.56h-7.98l-13.56,32.56h8.76Zm-35.8,0v-17.9l14.3,17.9h6.87v-32.38h-8.12v17.81l-14.12-17.81h-7.1v32.38h8.16Zm-35.8-25.35h6.41c2.26,0,3.69,1.25,3.69,3.15s-1.43,3.05-3.69,3.05h-6.41v-6.2Zm0,25.35v-12.35h3.32l9.13,12.35h9.55l-9.78-13.27c3.92-1.53,6.28-4.9,6.28-9.11,0-2.91-1.06-5.32-3.18-7.17-2.08-1.9-4.89-2.82-8.44-2.82h-15.18v32.38h8.3Zm-15.31,0v-7.31h-16.61v-6.34h12.92v-7.03h-12.92v-4.39h16.24v-7.31h-24.54v32.38h24.91Zm-41.33,0v-25.07h9.73v-7.31h-27.72v7.31h9.69v25.07h8.3Zm-45.85,0v-17.9l14.3,17.9h6.87v-32.38h-8.12v17.81l-14.11-17.81h-7.1v32.38h8.17Zm-16.84-32.38h-8.3v32.38h8.3v-32.38Zm-58.81,18.82c0,4.49,1.34,8,4.01,10.5,2.67,2.45,6.04,3.7,10.15,3.7s7.47-1.25,10.15-3.7c2.68-2.5,4.01-6.01,4.01-10.5v-18.82h-8.3v19.24c0,4.12-2.4,6.1-5.86,6.1s-5.86-1.99-5.86-6.1v-19.24h-8.3v18.82Zm-6.6,13.55v-7.31h-16.61v-6.34h12.92v-7.03h-12.92v-4.39h16.24v-7.31h-24.54v32.38h24.91Zm-45.16.65c3.88,0,7.06-.93,9.5-2.82,2.44-1.9,3.69-4.39,3.69-7.58,0-2.78-.88-4.95-2.63-6.48-1.75-1.53-4.2-2.82-7.29-3.84-1.34-.41-3.46-.97-4.43-1.3l-1.48-.51c-.97-.41-1.34-.88-1.34-1.48,0-1.43,1.43-2.13,4.24-2.13,1.84,0,3.74.33,5.72.93,1.98.6,3.69,1.34,5.12,2.22v-8c-3.37-1.8-7.01-2.68-10.93-2.68-7.75,0-12.68,3.47-12.68,9.71,0,1.9.55,3.61,1.15,4.77.69,1.16,2.21,2.27,3.14,2.96.51.32,1.2.65,2.12,1.02l2.12.83,2.35.69,2.91.88c.55.19,1.71.51,2.08.83.74.51,1.24.93,1.24,1.9,0,1.71-1.66,2.54-4.94,2.54-2.08,0-4.29-.41-6.64-1.3-2.35-.88-4.2-1.9-5.54-3.14v8.51c3.37,2.31,7.52,3.47,12.5,3.47m-47.79-14.2c0,4.49,1.34,8,4.01,10.5,2.67,2.45,6.04,3.7,10.15,3.7s7.47-1.25,10.15-3.7c2.67-2.5,4.01-6.01,4.01-10.5v-18.82h-8.3v19.24c0,4.12-2.4,6.1-5.86,6.1s-5.86-1.99-5.86-6.1v-19.24h-8.3v18.82Zm-32.61,13.55v-19.75l5.95,8.7h4.57l5.77-8.7v19.75h8.26v-32.38h-8.21l-8.21,12.44-8.17-12.44h-8.26v32.38h8.3Z" style="fill:#1d1d1b; stroke-width:0px;"/><path d="m1174.44,489.2l5.41,17.66h-10.93l5.52-17.66Zm-17.51,48.73l5.41-13.94h24.19l5.31,13.94h24.51l-30.66-74.9h-21.75l-30.56,74.9h23.55Zm-88.06,0v-41.7l10.93,17.77h12.31l10.5-17.77v41.7h21.86v-74.47h-22.49l-16.34,26.49-16.23-26.49h-22.6v74.47h22.07Zm-43.18-74.47h-22.81v74.47h22.81v-74.47Zm-99.62,74.47v-41.7l10.93,17.77h12.31l10.5-17.77v41.7h21.86v-74.47h-22.49l-16.34,26.49-16.23-26.49h-22.6v74.47h22.07Z" style="fill:#1d1d1b; stroke-width:0px;"/><polygon points="518.49 297.8 592.72 372.4 592.72 178.31 518.49 102.46 518.49 297.8" style="fill:#31aab3; stroke-width:0px;"/><polygon points="592.72 152.25 518.49 77.91 518.49 102.46 592.72 178.31 592.72 152.25" style="fill:#2c6189; stroke-width:0px;"/><polygon points="1201.91 114.5 1201.91 223.95 1391.79 411.62 1496.55 411.62 1201.91 114.5" style="fill:#e84c3b; stroke-width:0px;"/><polygon points="518.49 77.91 592.72 152.25 592.72 74.54 518.49 0 518.49 77.91" style="fill:#7f78b6; stroke-width:0px;"/><polygon points="1201.91 412.32 905.55 114.46 905.55 412.32 609.19 114.46 609.19 412.32 312.83 114.46 312.83 412.32 16.46 114.46 16.46 411.62 0 411.62 0 74.54 296.36 372.4 296.36 74.54 592.72 372.4 592.72 74.54 889.08 372.4 889.08 74.54 1185.44 372.4 1185.44 74.51 1520 411.62 1496.55 411.62 1201.91 114.5 1201.91 412.32" style="fill:#1d1d1b; stroke-width:0px;"/></g></svg>